<svg width="140" height="140" viewBox="0 0 140 140" xmlns="http://www.w3.org/2000/svg">
  <defs>
    <linearGradient id="goldGrad" x1="0" y1="0" x2="1" y2="1">
      <stop offset="0%" stop-color="#f7c948"/>
      <stop offset="100%" stop-color="#d4a138"/>
    </linearGradient>
    <linearGradient id="bgGrad" x1="0" y1="0" x2="1" y2="1">
      <stop offset="0%" stop-color="#070a10"/>
      <stop offset="100%" stop-color="#111827"/>
    </linearGradient>
  </defs>
  <rect width="140" height="140" rx="28" fill="#070a10"/>
  <circle cx="70" cy="70" r="60" fill="url(#bgGrad)" stroke="#1f2937" stroke-width="4"/>
  <circle cx="70" cy="70" r="52" fill="#08101b" stroke="url(#goldGrad)" stroke-width="3"/>
  <g transform="translate(70 50)">
    <path d="M-26 0 L-18 -24 C-16 -28 13 -28 15 -24 L23 0 Q16 4 12 0 Q6 12 -2 0 Q-8 4 -14 0 Z" fill="url(#goldGrad)"/>
    <circle cx="-20" cy="-18" r="4" fill="#c0902b"/>
    <circle cx="0" cy="-22" r="4" fill="#c0902b"/>
    <circle cx="20" cy="-18" r="4" fill="#c0902b"/>
    <path d="M-32 8 H32 L30 22 L18 18 L0 30 L-18 18 L-30 22 Z" fill="#b3872f"/>
    <circle cx="0" cy="0" r="18" fill="#111827" stroke="#f8c94f" stroke-width="3"/>
    <path d="M0 -18 V-28" stroke="#f8c94f" stroke-width="3" stroke-linecap="round"/>
    <path d="M0 0 V8" stroke="#f8c94f" stroke-width="3" stroke-linecap="round"/>
    <path d="M-12 -2 L-4 0" stroke="#f8c94f" stroke-width="2" stroke-linecap="round"/>
    <path d="M12 -2 L4 0" stroke="#f8c94f" stroke-width="2" stroke-linecap="round"/>
  </g>
  <text x="70" y="108" text-anchor="middle" font-family="Inter, Arial, Helvetica, sans-serif" font-size="18" font-weight="700" fill="#ffffff">CHRONOS</text>
  <text x="70" y="128" text-anchor="middle" font-family="Inter, Arial, Helvetica, sans-serif" font-size="14" font-weight="600" fill="#f8c94f">elite</text>
</svg>
